<?xml version="1.0" standalone="no"?>
<!DOCTYPE svg PUBLIC "-//W3C//DTD SVG 20010904//EN"
 "http://www.w3.org/TR/2001/REC-SVG-20010904/DTD/svg10.dtd">
<svg version="1.0" xmlns="http://www.w3.org/2000/svg"
 width="211.000000pt" height="157.000000pt" viewBox="0 0 211.000000 157.000000"
 preserveAspectRatio="xMidYMid meet">

<g transform="translate(0.000000,157.000000) scale(0.100000,-0.100000)"
fill="#000000" stroke="none">
<path d="M378 860 c-44 -24 -78 -83 -78 -135 0 -33 2 -35 33 -35 47 0 65 25
69 90 3 40 8 55 18 55 8 0 15 -9 16 -20 2 -48 4 -49 42 -12 21 20 46 37 57 37
18 0 18 1 3 17 -27 26 -115 28 -160 3z"/>
<path d="M450 744 c-45 -44 -86 -77 -102 -81 -31 -6 -34 -13 -16 -31 17 -17
48 -15 70 5 12 11 32 16 53 14 27 -2 37 3 50 23 9 13 15 33 13 44 -4 28 20 52
53 52 16 0 29 5 29 10 0 6 -14 10 -32 10 -44 0 -79 -34 -72 -69 4 -19 0 -31
-13 -42 -16 -13 -17 -13 -4 3 7 10 11 28 8 40 -9 31 37 78 75 78 15 0 28 5 28
10 0 6 -15 10 -33 10 -27 0 -44 -12 -107 -76z m26 -25 c10 -17 -13 -36 -27
-22 -12 12 -4 33 11 33 5 0 12 -5 16 -11z m-26 -46 c0 -3 -6 -3 -14 0 -7 3
-20 0 -27 -6 -11 -10 -11 -9 0 5 11 15 41 15 41 1z"/>
<path d="M1103 789 c-58 -21 -22 -113 37 -94 30 10 24 25 -10 25 -25 0 -30 4
-30 25 0 21 5 25 30 25 17 0 30 4 30 9 0 13 -33 19 -57 10z"/>
<path d="M1757 793 c-4 -3 -32 -5 -62 -4 -33 1 -55 -2 -55 -8 0 -6 7 -11 15
-11 10 0 15 -11 15 -35 0 -24 5 -35 15 -35 10 0 15 11 15 35 0 24 5 35 15 35
8 0 15 -5 15 -10 0 -6 15 -17 33 -25 l32 -14 -32 -1 c-37 0 -44 -15 -11 -23
26 -7 58 8 58 28 0 8 -12 21 -27 29 -26 14 -27 15 -5 16 25 0 30 15 6 24 -19
7 -19 7 -27 -1z"/>
<path d="M665 773 c4 -10 12 -30 17 -45 14 -40 41 -35 58 10 8 20 16 40 18 45
2 4 -1 7 -7 7 -6 0 -17 -11 -23 -25 -6 -14 -15 -25 -19 -25 -5 0 -11 11 -15
25 -3 14 -13 25 -21 25 -10 0 -13 -5 -8 -17z"/>
<path d="M770 745 c0 -45 0 -45 35 -45 41 0 48 20 8 21 -26 1 -27 1 -5 7 13 4
23 12 23 17 0 6 -10 13 -23 17 -22 6 -21 6 5 7 40 1 33 21 -8 21 -35 0 -35 0
-35 -45z"/>
<path d="M850 745 c0 -32 4 -45 14 -45 8 0 16 6 19 13 4 10 7 10 18 0 7 -7 17
-13 21 -13 5 0 8 6 7 13 -3 23 13 57 27 57 9 0 14 -12 14 -35 0 -19 5 -35 10
-35 6 0 10 16 10 35 0 24 5 35 15 35 8 0 15 4 15 10 0 5 -38 9 -85 9 l-85 0 0
-44z m58 13 c-6 -18 -28 -21 -28 -4 0 9 7 16 16 16 9 0 14 -5 12 -12z"/>
<path d="M1030 745 c0 -33 4 -45 15 -45 11 0 15 12 15 45 0 33 -4 45 -15 45
-11 0 -15 -12 -15 -45z"/>
<path d="M1186 750 c-19 -48 -19 -50 -6 -50 6 0 17 15 25 33 l14 32 13 -32 c7
-18 19 -33 26 -33 8 0 12 3 10 8 -2 4 -10 24 -18 45 -19 50 -43 48 -64 -3z"/>
<path d="M1280 745 c0 -45 0 -45 35 -45 19 0 35 5 35 10 0 6 -11 10 -25 10
-22 0 -25 4 -25 35 0 19 -4 35 -10 35 -5 0 -10 -20 -10 -45z"/>
<path d="M1360 745 c0 -25 2 -45 3 -45 10 0 73 35 79 44 14 21 -12 46 -47 46
-35 0 -35 0 -35 -45z m58 13 c-3 -7 -11 -13 -18 -13 -7 0 -15 6 -17 13 -3 7 4
12 17 12 13 0 20 -5 18 -12z"/>
<path d="M1457 755 c-19 -41 -21 -55 -7 -55 5 0 16 15 24 33 l14 32 13 -32 c7
-18 19 -33 26 -33 17 0 17 4 -7 50 -25 49 -41 50 -63 5z"/>
<path d="M1550 745 c0 -32 4 -45 14 -45 8 0 16 6 19 13 4 10 7 10 18 0 7 -7
17 -13 22 -13 5 0 7 6 4 13 -2 6 0 20 4 29 16 30 0 48 -42 48 l-39 0 0 -45z
m58 13 c-6 -18 -28 -21 -28 -4 0 9 7 16 16 16 9 0 14 -5 12 -12z"/>
<path d="M573 752 c-29 -3 -31 -5 -28 -38 1 -22 -3 -38 -11 -41 -7 -2 -11 -10
-8 -18 6 -14 -25 -26 -71 -29 -16 0 -41 -8 -53 -18 l-24 -16 22 -12 c13 -7 43
-10 70 -8 84 8 144 72 138 146 -3 35 -5 37 -35 34z"/>
</g>
</svg>
